<?xml version="1.0" standalone="no"?>
<!DOCTYPE svg PUBLIC "-//W3C//DTD SVG 20010904//EN"
 "http://www.w3.org/TR/2001/REC-SVG-20010904/DTD/svg10.dtd">
<svg version="1.0" xmlns="http://www.w3.org/2000/svg"
 width="64.000000pt" height="64.000000pt" viewBox="0 0 64.000000 64.000000"
 preserveAspectRatio="xMidYMid meet">

<g transform="translate(0.000000,64.000000) scale(0.100000,-0.100000)"
fill="#000000" stroke="none">
<path d="M182 557 l-52 -53 0 -103 c0 -87 -3 -106 -17 -118 -17 -14 -17 -14 0
-9 12 4 17 0 17 -14 0 -10 5 -22 11 -25 6 -4 8 -14 5 -22 -5 -11 -2 -13 10 -9
12 5 15 2 10 -9 -3 -10 -2 -13 4 -10 11 7 60 -33 60 -49 0 -5 -11 1 -25 14
-14 13 -25 19 -25 13 0 -13 136 -143 150 -143 5 0 57 46 115 102 l105 101 0
130 0 129 -62 64 -62 64 -96 0 -96 0 -52 -53z m277 -10 l42 -44 -61 -2 c-37
-1 -59 2 -56 8 3 5 0 12 -6 14 -7 3 -1 6 15 6 15 1 27 -3 27 -9 0 -5 12 -10
26 -10 22 0 25 2 14 15 -8 10 -31 15 -68 15 -53 0 -54 -1 -39 -18 23 -25 25
-147 3 -139 -11 5 -16 -15 -21 -96 -4 -56 -6 -113 -4 -127 1 -14 1 -40 1 -59
l-2 -34 -20 26 c-11 14 -20 29 -20 33 0 4 7 -1 15 -12 13 -17 14 -9 15 82 0
56 -3 117 -7 135 -8 32 -8 32 -14 -21 -4 -41 -6 -24 -7 62 -1 64 -6 119 -11
122 -4 3 -34 6 -65 7 l-57 2 43 44 42 43 86 0 86 0 43 -43z m-221 -141 c2 -27
-1 -53 -7 -59 -6 -6 -6 -19 -1 -32 5 -14 5 -26 -2 -33 -18 -18 -2 -41 23 -35
21 6 21 7 4 20 -11 7 -14 13 -8 13 6 0 16 -6 22 -13 8 -11 6 -18 -10 -33 -21
-19 -21 -18 -40 5 -14 17 -25 22 -44 17 l-25 -6 0 105 0 106 43 -3 42 -3 3
-49z m240 48 c19 -6 20 -8 8 -18 -10 -7 -16 -32 -18 -66 -3 -69 -4 -73 -28
-52 -16 13 -20 29 -20 73 0 71 5 77 58 63z m-25 -172 c16 -7 14 -11 -13 -37
-35 -34 -50 -27 -26 12 l17 28 -19 -22 c-11 -12 -22 -19 -26 -16 -8 8 24 43
38 42 6 0 19 -4 29 -7z m-43 -177 c-41 -41 -79 -75 -85 -75 -5 0 24 34 66 75
42 41 80 75 85 75 5 0 -25 -34 -66 -75z"/>
<path d="M200 525 c-11 -13 -8 -15 19 -15 17 0 31 5 31 10 0 6 7 10 16 10 8 0
12 -5 8 -11 -4 -7 1 -10 11 -7 10 1 20 9 23 16 6 18 -92 16 -108 -3z"/>
<path d="M341 448 c0 -27 4 -48 9 -48 11 0 11 21 0 65 -7 27 -8 25 -9 -17z"/>
<path d="M200 364 c0 -14 4 -23 9 -20 5 3 7 15 4 26 -7 28 -13 25 -13 -6z"/>
<path d="M200 319 c0 -5 5 -7 10 -4 6 3 10 8 10 11 0 2 -4 4 -10 4 -5 0 -10
-5 -10 -11z"/>
<path d="M200 289 c0 -5 5 -7 10 -4 6 3 10 8 10 11 0 2 -4 4 -10 4 -5 0 -10
-5 -10 -11z"/>
</g>
</svg>
